<svg xmlns="http://www.w3.org/2000/svg" width="760" height="482" viewBox="0 0 760 482" role="img" aria-label="Milliseconds per run, jc against jc-rs, lower is better">
<rect width="760" height="482" fill="#131922"/>
<style>text{font-family:ui-sans-serif,-apple-system,"Segoe UI",Roboto,Helvetica,Arial,sans-serif}.n{font-family:ui-monospace,SFMono-Regular,Menlo,Consolas,monospace;font-variant-numeric:tabular-nums}</style>
<text x="16" y="30" fill="#e7ecf3" font-size="16" font-weight="600">Milliseconds per run, lower is better</text>
<text x="16" y="50" fill="#97a3b6" font-size="12">fastest of 5 to 15 runs, one process per run · jc 1.25.7 on Python 3.12.3 · Linux x86_64, static musl</text>
<rect x="16" y="62" width="10" height="10" rx="2" fill="#cf7f3c"/>
<text x="32" y="71" fill="#97a3b6" font-size="12">jc</text>
<rect x="64" y="62" width="10" height="10" rx="2" fill="#4f7fdb"/>
<text x="80" y="71" fill="#97a3b6" font-size="12">jc-rs</text>
<text x="16" y="107.0" fill="#e7ecf3" font-size="13" font-weight="500">Cold start</text>
<text x="16" y="123.0" fill="#97a3b6" font-size="11">jc-rs -v</text>
<rect x="184" y="93" width="97" height="14" rx="4" fill="#cf7f3c"/>
<text x="289" y="104" fill="#97a3b6" font-size="11" class="n">109 ms</text>
<rect x="184" y="113" width="4" height="14" rx="4" fill="#4f7fdb"/>
<text x="196" y="124" fill="#97a3b6" font-size="11" class="n">4 ms</text>
<text x="744" y="115.0" fill="#e7ecf3" font-size="13" font-weight="600" text-anchor="end" class="n">27.2×</text>
<line x1="16" y1="132" x2="744" y2="132" stroke="#212936" stroke-width="1"/>
<text x="16" y="159.0" fill="#e7ecf3" font-size="13" font-weight="500">ps aux</text>
<text x="16" y="175.0" fill="#97a3b6" font-size="11">110 lines</text>
<rect x="184" y="145" width="100" height="14" rx="4" fill="#cf7f3c"/>
<text x="292" y="156" fill="#97a3b6" font-size="11" class="n">112 ms</text>
<rect x="184" y="165" width="5" height="14" rx="4" fill="#4f7fdb"/>
<text x="197" y="176" fill="#97a3b6" font-size="11" class="n">6 ms</text>
<text x="744" y="167.0" fill="#e7ecf3" font-size="13" font-weight="600" text-anchor="end" class="n">18.7×</text>
<line x1="16" y1="184" x2="744" y2="184" stroke="#212936" stroke-width="1"/>
<text x="16" y="211.0" fill="#e7ecf3" font-size="13" font-weight="500">traceroute</text>
<text x="16" y="227.0" fill="#97a3b6" font-size="11">1.5 KB</text>
<rect x="184" y="197" width="106" height="14" rx="4" fill="#cf7f3c"/>
<text x="298" y="208" fill="#97a3b6" font-size="11" class="n">119 ms</text>
<rect x="184" y="217" width="9" height="14" rx="4" fill="#4f7fdb"/>
<text x="201" y="228" fill="#97a3b6" font-size="11" class="n">10 ms</text>
<text x="744" y="219.0" fill="#e7ecf3" font-size="13" font-weight="600" text-anchor="end" class="n">11.9×</text>
<line x1="16" y1="236" x2="744" y2="236" stroke="#212936" stroke-width="1"/>
<text x="16" y="263.0" fill="#e7ecf3" font-size="13" font-weight="500">ifconfig</text>
<text x="16" y="279.0" fill="#97a3b6" font-size="11">1.3 KB</text>
<rect x="184" y="249" width="109" height="14" rx="4" fill="#cf7f3c"/>
<text x="301" y="260" fill="#97a3b6" font-size="11" class="n">122 ms</text>
<rect x="184" y="269" width="13" height="14" rx="4" fill="#4f7fdb"/>
<text x="205" y="280" fill="#97a3b6" font-size="11" class="n">15 ms</text>
<text x="744" y="271.0" fill="#e7ecf3" font-size="13" font-weight="600" text-anchor="end" class="n">8.1×</text>
<line x1="16" y1="288" x2="744" y2="288" stroke="#212936" stroke-width="1"/>
<text x="16" y="315.0" fill="#e7ecf3" font-size="13" font-weight="500">clf</text>
<text x="16" y="331.0" fill="#97a3b6" font-size="11">10,000 log lines</text>
<rect x="184" y="301" width="460" height="14" rx="4" fill="#cf7f3c"/>
<text x="652" y="312" fill="#97a3b6" font-size="11" class="n">516 ms</text>
<rect x="184" y="321" width="159" height="14" rx="4" fill="#4f7fdb"/>
<text x="351" y="332" fill="#97a3b6" font-size="11" class="n">178 ms</text>
<text x="744" y="323.0" fill="#e7ecf3" font-size="13" font-weight="600" text-anchor="end" class="n">2.9×</text>
<line x1="16" y1="340" x2="744" y2="340" stroke="#212936" stroke-width="1"/>
<text x="16" y="367.0" fill="#e7ecf3" font-size="13" font-weight="500">csv</text>
<text x="16" y="383.0" fill="#97a3b6" font-size="11">10,000 rows</text>
<rect x="184" y="353" width="149" height="14" rx="4" fill="#cf7f3c"/>
<text x="341" y="364" fill="#97a3b6" font-size="11" class="n">167 ms</text>
<rect x="184" y="373" width="26" height="14" rx="4" fill="#4f7fdb"/>
<text x="218" y="384" fill="#97a3b6" font-size="11" class="n">29 ms</text>
<text x="744" y="375.0" fill="#e7ecf3" font-size="13" font-weight="600" text-anchor="end" class="n">5.8×</text>
<line x1="16" y1="392" x2="744" y2="392" stroke="#212936" stroke-width="1"/>
<text x="16" y="419.0" fill="#e7ecf3" font-size="13" font-weight="500">pkg-index-deb</text>
<text x="16" y="435.0" fill="#97a3b6" font-size="11">1.5 MB</text>
<rect x="184" y="405" width="215" height="14" rx="4" fill="#cf7f3c"/>
<text x="407" y="416" fill="#97a3b6" font-size="11" class="n">241 ms</text>
<rect x="184" y="425" width="41" height="14" rx="4" fill="#4f7fdb"/>
<text x="233" y="436" fill="#97a3b6" font-size="11" class="n">46 ms</text>
<text x="744" y="427.0" fill="#e7ecf3" font-size="13" font-weight="600" text-anchor="end" class="n">5.2×</text>
<text x="16" y="470" fill="#97a3b6" font-size="11">Measured 2026-08-09 by ci/bench-vs-jc.sh. Re-run it with make bench-vs-jc.</text>
</svg>
